<mxfile host="Electron" modified="2024-05-17T08:27:31.855Z" agent="Mozilla/5.0 (Windows NT 10.0; Win64; x64) AppleWebKit/537.36 (KHTML, like Gecko) draw.io/24.4.0 Chrome/120.0.6099.109 Electron/28.1.0 Safari/537.36" etag="79pAqCJ6V_IE_YgvqD6C" version="24.4.0" type="device">
  <diagram name="第 1 页" id="VX8x2q7U5yT6BQhmhuAg">
    <mxGraphModel dx="714" dy="451" grid="1" gridSize="3.937" guides="1" tooltips="1" connect="1" arrows="1" fold="1" page="1" pageScale="1" pageWidth="600" pageHeight="300" background="#464647" math="0" shadow="0">
      <root>
        <mxCell id="0" />
        <mxCell id="1" parent="0" />
        <mxCell id="jmHk-uP4lNvoMu1Ar3da-1" value="" style="rounded=1;whiteSpace=wrap;html=1;fillColor=#464647;strokeColor=#E6E6E6;strokeWidth=2;" parent="1" vertex="1">
          <mxGeometry x="11.81" y="15.75" width="574.8" height="263.78" as="geometry" />
        </mxCell>
        <mxCell id="jmHk-uP4lNvoMu1Ar3da-2" value="&lt;font style=&quot;font-size: 72px;&quot;&gt;DIY Skecth Viewer&lt;/font&gt;" style="text;html=1;align=center;verticalAlign=middle;whiteSpace=wrap;rounded=0;fontColor=#E6E6E6;fontStyle=2;fontSize=22;fontFamily=Times New Roman;" parent="1" vertex="1">
          <mxGeometry x="25.59" y="51.19" width="547.24" height="192.91" as="geometry" />
        </mxCell>
        <mxCell id="xmwHCHPa6OnCVvlSOBcP-1" value="&lt;font style=&quot;font-size: 24px;&quot;&gt;loading...&lt;/font&gt;" style="text;html=1;align=center;verticalAlign=middle;whiteSpace=wrap;rounded=0;fontColor=#E6E6E6;fontStyle=0;fontFamily=Times New Roman;" parent="1" vertex="1">
          <mxGeometry x="464.57" y="224.41" width="122.04" height="36.69" as="geometry" />
        </mxCell>
      </root>
    </mxGraphModel>
  </diagram>
</mxfile>
